<svg preserveAspectRatio="none" width="100%" height="100%" overflow="visible" style="display: block;" viewBox="0 0 14 10" fill="none" xmlns="http://www.w3.org/2000/svg">
<path id="Vector" d="M13.2559 0.357333C13.1994 0.249535 13.1146 0.159248 13.0104 0.0962582C12.9063 0.0332687 12.7869 -2.00449e-05 12.6652 9.05541e-09H0.665241C0.543803 0.000501615 0.4248 0.0340978 0.321028 0.0971753C0.217256 0.160253 0.132643 0.250425 0.0762868 0.357995C0.0199308 0.465565 -0.00603544 0.586463 0.00118053 0.707687C0.00839651 0.828911 0.0485217 0.945875 0.117241 1.046L6.11724 9.71267C6.1784 9.80149 6.26024 9.87412 6.3557 9.9243C6.45117 9.97447 6.5574 10.0007 6.66524 10.0007C6.77309 10.0007 6.87932 9.97447 6.97478 9.9243C7.07025 9.87412 7.15208 9.80149 7.21324 9.71267L13.2132 1.046C13.2825 0.946021 13.3231 0.829004 13.3306 0.707616C13.3381 0.586228 13.3123 0.465095 13.2559 0.357333ZM6.66524 8.162L1.93724 1.33333H11.3932L6.66524 8.162Z" fill="var(--fill-0, #141414)"/>
</svg>
