<svg width="14" height="14" viewBox="0 0 14 14" fill="none" xmlns="http://www.w3.org/2000/svg">
<path d="M6.66667 13.3333C5.74444 13.3333 4.87778 13.1582 4.06667 12.808C3.25556 12.4578 2.55 11.9829 1.95 11.3833C1.35 10.7838 0.875112 10.0782 0.525334 9.26667C0.175556 8.45511 0.000445288 7.58845 8.43881e-07 6.66667C-0.0004436 5.74489 0.174668 4.87822 0.525334 4.06667C0.876001 3.25511 1.35089 2.54956 1.95 1.95C2.54911 1.35044 3.25467 0.875556 4.06667 0.525333C4.87867 0.175111 5.74533 0 6.66667 0C7.588 0 8.45467 0.175111 9.26667 0.525333C10.0787 0.875556 10.7842 1.35044 11.3833 1.95C11.9824 2.54956 12.4576 3.25511 12.8087 4.06667C13.1598 4.87822 13.3347 5.74489 13.3333 6.66667C13.332 7.58845 13.1569 8.45511 12.808 9.26667C12.4591 10.0782 11.9842 10.7838 11.3833 11.3833C10.7824 11.9829 10.0769 12.458 9.26667 12.8087C8.45644 13.1593 7.58978 13.3342 6.66667 13.3333ZM7.33333 11.95C8.65555 11.7833 9.764 11.2027 10.6587 10.208C11.5533 9.21334 12.0004 8.03289 12 6.66667C11.9996 5.30045 11.5522 4.12 10.658 3.12533C9.76378 2.13067 8.65555 1.55 7.33333 1.38333V11.95Z" fill="white"/>
</svg>
