<svg width="16" height="16" viewBox="0 0 16 16" fill="none" xmlns="http://www.w3.org/2000/svg">
<path d="M7.33331 11.3333H8.66665V7.33331H7.33331V11.3333ZM7.99998 5.99998C8.18887 5.99998 8.34731 5.93598 8.47531 5.80798C8.60331 5.67998 8.66709 5.52176 8.66665 5.33331C8.6662 5.14487 8.6022 4.98665 8.47465 4.85865C8.34709 4.73065 8.18887 4.66665 7.99998 4.66665C7.81109 4.66665 7.65287 4.73065 7.52531 4.85865C7.39776 4.98665 7.33376 5.14487 7.33331 5.33331C7.33287 5.52176 7.39687 5.6802 7.52531 5.80865C7.65376 5.93709 7.81198 6.00087 7.99998 5.99998ZM7.99998 14.6666C7.07776 14.6666 6.21109 14.4915 5.39998 14.1413C4.58887 13.7911 3.88331 13.3162 3.28331 12.7166C2.68331 12.1171 2.20843 11.4115 1.85865 10.6C1.50887 9.78842 1.33376 8.92176 1.33331 7.99998C1.33287 7.0782 1.50798 6.21153 1.85865 5.39998C2.20931 4.58842 2.6842 3.88287 3.28331 3.28331C3.88243 2.68376 4.58798 2.20887 5.39998 1.85865C6.21198 1.50842 7.07865 1.33331 7.99998 1.33331C8.92131 1.33331 9.78798 1.50842 10.6 1.85865C11.412 2.20887 12.1175 2.68376 12.7166 3.28331C13.3158 3.88287 13.7909 4.58842 14.142 5.39998C14.4931 6.21153 14.668 7.0782 14.6666 7.99998C14.6653 8.92176 14.4902 9.78842 14.1413 10.6C13.7924 11.4115 13.3175 12.1171 12.7166 12.7166C12.1158 13.3162 11.4102 13.7913 10.6 14.142C9.78976 14.4926 8.92309 14.6675 7.99998 14.6666ZM7.99998 13.3333C9.48887 13.3333 10.75 12.8166 11.7833 11.7833C12.8166 10.75 13.3333 9.48887 13.3333 7.99998C13.3333 6.51109 12.8166 5.24998 11.7833 4.21665C10.75 3.18331 9.48887 2.66665 7.99998 2.66665C6.51109 2.66665 5.24998 3.18331 4.21665 4.21665C3.18331 5.24998 2.66665 6.51109 2.66665 7.99998C2.66665 9.48887 3.18331 10.75 4.21665 11.7833C5.24998 12.8166 6.51109 13.3333 7.99998 13.3333Z" fill="#141414"/>
</svg>
